<svg xmlns="http://www.w3.org/2000/svg" viewBox="0 0 120 110">
  <circle cx="60" cy="60" r="44" fill="#ffe1d9" opacity="0.55"/>
  <path d="M12 60 C 30 50 48 49 58 56 L 58 92 C 48 86 30 87 12 96 Z" fill="#fffdfa" stroke="#6f584a" stroke-width="4" stroke-linejoin="round"/>
  <path d="M108 60 C 90 50 72 49 62 56 L 62 92 C 72 86 90 87 108 96 Z" fill="#fffdfa" stroke="#6f584a" stroke-width="4" stroke-linejoin="round"/>
  <path d="M22 64 C 34 58 46 57 54 61" stroke="#dabcba" stroke-width="3" fill="none" stroke-linecap="round"/>
  <path d="M98 64 C 86 58 74 57 66 61" stroke="#dabcba" stroke-width="3" fill="none" stroke-linecap="round"/>
  <path d="M22 76 C 34 70 46 69 54 73" stroke="#ecdcd5" stroke-width="3" fill="none" stroke-linecap="round"/>
  <path d="M98 76 C 86 70 74 69 66 73" stroke="#ecdcd5" stroke-width="3" fill="none" stroke-linecap="round"/>
  <path d="M60 54 C 59 40 62 30 58 14" stroke="#6f584a" stroke-width="4" fill="none" stroke-linecap="round"/>
  <path d="M59.5 42 C 48 39 42 30 43 20 C 52 23 58 31 59.5 42 Z" fill="#d18e8b"/>
  <path d="M60 30 C 70 26 76 17 74 9 C 65 12 61 20 60 30 Z" fill="#9fb9c6"/>
</svg>
